<?xml version="1.0" standalone="no"?>
<!DOCTYPE svg PUBLIC "-//W3C//DTD SVG 20010904//EN"
 "http://www.w3.org/TR/2001/REC-SVG-20010904/DTD/svg10.dtd">
<svg version="1.0" xmlns="http://www.w3.org/2000/svg"
 width="4178.000000pt" height="3084.000000pt" viewBox="0 0 4178.000000 3084.000000"
 preserveAspectRatio="xMidYMid meet">

<g transform="translate(0.000000,3084.000000) scale(0.100000,-0.100000)"
fill="#000000" stroke="none">
<path d="M20268 30830 c-1374 -61 -2641 -372 -3908 -959 -461 -214 -992 -512
-1414 -795 -177 -118 -1029 -719 -1061 -748 -32 -29 269 115 910 434 568 283
733 359 1040 484 1169 473 2258 734 3465 831 269 21 1065 24 1325 5 1050 -78
2028 -292 2960 -649 1431 -549 2630 -1481 3824 -2973 389 -486 672 -922 931
-1435 461 -911 712 -1847 780 -2900 13 -206 13 -727 0 -948 -87 -1457 -467
-2603 -1177 -3552 -421 -563 -970 -1044 -1638 -1434 -753 -441 -1759 -787
-2612 -900 -267 -35 -433 -46 -743 -45 -558 0 -1019 69 -1535 229 -692 215
-1229 526 -1651 957 -442 451 -695 950 -785 1548 -26 171 -31 520 -10 685 122
977 762 1703 1682 1909 782 175 1597 -55 2116 -597 268 -281 435 -588 553
-1017 28 -102 58 -209 66 -238 l15 -53 122 103 c161 136 435 409 529 528 146
184 257 371 331 555 87 219 118 369 117 575 0 229 -35 376 -141 582 -133 257
-339 470 -883 909 l-179 144 -78 4 c-102 4 -411 -55 -910 -174 -306 -74 -390
-81 -756 -67 -469 18 -633 -4 -858 -118 l-121 -61 -139 11 c-637 50 -1108 338
-1515 925 -81 117 -132 169 -194 197 -50 23 -57 23 -371 22 -1232 -4 -2462
-267 -3685 -789 -74 -32 -328 -145 -565 -253 -236 -107 -446 -201 -465 -209
-30 -11 -22 -1 55 73 315 303 1019 768 1625 1074 1009 509 1982 760 3045 786
615 16 1081 -47 1502 -201 157 -58 427 -196 573 -293 182 -121 276 -199 463
-380 138 -135 167 -158 240 -193 133 -64 191 -72 507 -73 207 0 309 4 415 18
282 35 549 99 786 187 97 37 121 50 161 91 101 104 131 219 131 508 1 165 -3
211 -22 300 -79 370 -248 667 -571 1003 -685 712 -1580 1127 -2755 1276 -204
26 -586 58 -1445 121 -1859 136 -2418 197 -3029 331 -577 127 -1094 308 -1583
556 -638 323 -1062 673 -1354 1118 -190 291 -288 539 -384 977 -28 128 -53
239 -56 247 -6 19 -252 -224 -383 -379 -351 -417 -560 -856 -655 -1380 -154
-847 -63 -1627 279 -2383 117 -258 332 -614 508 -839 l74 -95 -92 -144 c-1094
-1714 -1461 -3878 -1024 -6027 322 -1581 1038 -3023 2105 -4242 132 -151 597
-621 744 -751 76 -68 90 -77 73 -49 -11 19 -63 105 -115 190 -1025 1681 -1303
3424 -837 5250 51 199 46 188 66 160 14 -20 16 -69 18 -374 4 -563 54 -1009
170 -1532 277 -1242 956 -2634 1797 -3686 966 -1208 2171 -2033 3607 -2469
2059 -625 4231 -493 6491 396 899 353 1715 856 2448 1508 67 60 122 111 122
113 0 2 -72 -32 -159 -76 -219 -109 -326 -156 -536 -235 -699 -261 -1440 -462
-2141 -579 -1292 -217 -2582 -190 -3859 79 -1853 390 -3189 1315 -4039 2794
-110 192 -255 486 -244 497 2 1 67 -70 144 -159 598 -685 1015 -1047 1657
-1435 1897 -1150 4010 -1467 6296 -946 2208 503 4073 1773 5265 3586 1091
1660 1555 3633 1346 5723 -178 1772 -817 3443 -1863 4870 -529 722 -1224 1450
-1957 2051 -1622 1329 -3512 2098 -5600 2279 -426 37 -1013 52 -1382 35z
m-8344 -2677 c101 -524 378 -1012 781 -1375 422 -379 989 -667 1704 -864 202
-55 311 -82 814 -194 218 -50 450 -103 515 -119 64 -16 145 -35 180 -42 l62
-12 0 -48 0 -49 -54 0 c-101 0 -471 21 -641 36 -902 80 -1698 347 -2290 767
-769 545 -1148 1189 -1108 1885 3 61 9 112 12 112 3 0 14 -44 25 -97z m6881
-4203 c335 -16 621 -62 915 -146 467 -134 775 -330 1011 -644 75 -99 219 -361
219 -398 0 -8 -17 7 -37 34 -431 573 -1027 871 -1868 934 -313 23 -1223 2
-1506 -35 -144 -19 -244 -37 -598 -109 -284 -58 -290 -58 -291 -15 0 13 22 23
83 39 45 12 174 48 287 80 634 180 955 239 1395 260 88 4 167 8 175 8 8 1 105
-3 215 -8z m-410 -1385 c162 -42 293 -137 445 -324 107 -133 260 -277 376
-354 261 -174 602 -292 997 -348 78 -10 147 -21 152 -23 6 -1 -43 -9 -108 -16
-169 -18 -461 -9 -601 19 -218 44 -419 125 -591 238 -119 79 -254 193 -340
288 -134 150 -273 240 -441 287 -70 19 -102 22 -274 20 -174 -1 -277 -10 -940
-85 -410 -46 -748 -81 -752 -78 -4 3 -8 28 -10 55 l-3 49 150 28 c901 166
1215 221 1321 230 69 6 172 17 228 24 122 17 308 12 391 -10z m504 -2712
c-109 -94 -348 -341 -429 -443 -351 -440 -529 -923 -570 -1540 -59 -877 324
-1761 1100 -2541 384 -386 811 -686 1285 -902 641 -293 1278 -439 2137 -488
269 -15 921 -7 1158 15 1302 120 2406 511 3471 1227 273 184 518 375 818 637
89 79 175 148 190 153 14 6 63 19 109 29 77 17 83 17 77 2 -4 -9 -14 -39 -22
-67 -27 -90 -51 -121 -190 -253 -1225 -1157 -2656 -1822 -4318 -2007 -366 -40
-533 -49 -915 -49 -465 0 -727 21 -1135 89 -1135 191 -2196 704 -2886 1396
-547 549 -894 1234 -1035 2044 -52 299 -43 672 22 993 91 447 295 885 571
1227 96 119 277 297 386 378 69 52 215 147 225 147 2 0 -20 -21 -49 -47z
m-6755 -2183 c-278 -893 -348 -1767 -208 -2590 14 -80 29 -160 34 -177 10 -38
1 -43 -19 -10 -115 180 -181 334 -232 542 -194 797 -4 1873 411 2329 29 31 54
55 56 54 1 -2 -18 -68 -42 -148z m4536 -4065 c290 -503 616 -924 1037 -1335
809 -792 1843 -1360 3173 -1744 241 -69 243 -76 21 -51 -840 94 -1610 361
-2338 811 -1139 704 -1841 1605 -2178 2794 -19 68 -35 129 -35 135 0 5 52 -93
114 -220 63 -126 155 -302 206 -390z"/>
<path d="M13625 8034 c-876 -73 -1584 -503 -2023 -1230 -367 -609 -528 -1442
-437 -2264 99 -892 504 -1612 1151 -2045 389 -261 811 -397 1349 -435 160 -11
160 -11 585 -154 557 -188 1107 -357 1674 -511 171 -47 316 -87 322 -89 17 -6
228 615 212 625 -6 4 -32 10 -57 14 -209 30 -1422 296 -1603 351 -36 11 -19
39 35 58 82 29 304 137 395 194 473 294 831 769 1021 1355 112 344 166 677
178 1092 22 813 -186 1542 -594 2082 -390 517 -931 834 -1595 934 -130 19
-490 33 -613 23z m480 -629 c324 -57 604 -201 841 -432 457 -445 716 -1196
691 -2003 -43 -1391 -781 -2300 -1866 -2300 -569 0 -1065 277 -1408 787 -183
274 -332 676 -387 1048 -53 357 -45 805 20 1165 56 306 167 620 305 861 294
514 743 821 1299 889 106 13 398 4 505 -15z"/>
<path d="M39055 8033 c-495 -42 -903 -205 -1207 -483 -390 -356 -556 -923
-423 -1445 63 -250 176 -446 370 -640 223 -224 532 -412 935 -569 80 -31 199
-78 265 -104 170 -66 392 -178 515 -260 264 -175 401 -352 462 -599 32 -128
32 -370 0 -496 -97 -385 -402 -639 -872 -723 -187 -34 -492 -29 -727 11 -281
48 -599 158 -825 286 -50 28 -94 47 -98 42 -5 -4 -49 -143 -99 -308 l-90 -300
22 -19 c37 -32 256 -133 382 -176 214 -73 460 -128 725 -162 155 -19 591 -16
750 6 791 108 1335 501 1540 1113 64 194 74 263 74 538 0 275 -9 342 -73 535
-107 317 -349 600 -706 825 -137 86 -463 243 -720 345 -623 248 -907 445
-1036 715 -48 100 -68 174 -78 294 -33 380 166 706 525 858 85 37 151 56 269
80 126 25 472 25 635 0 230 -36 494 -118 679 -211 40 -21 75 -36 77 -34 4 5
204 592 204 601 0 10 -123 69 -230 111 -205 81 -504 145 -779 166 -125 9 -373
11 -466 3z"/>
<path d="M7197 7818 c-24 -73 -464 -1370 -977 -2883 -513 -1512 -935 -2758
-938 -2767 -4 -17 19 -18 381 -18 l386 0 70 213 c38 116 174 528 301 915 l231
702 1026 -2 1025 -3 308 -908 c170 -500 310 -911 313 -913 2 -2 182 -3 399 -2
l396 3 -986 2897 -987 2898 -452 0 -451 0 -45 -132z m492 -565 c157 -615 197
-743 550 -1783 l307 -905 -865 -3 c-475 -1 -866 0 -869 3 -3 2 126 393 287
867 160 475 309 924 331 998 50 167 168 596 205 748 15 61 31 112 36 112 4 0
13 -17 18 -37z"/>
<path d="M18040 6108 c0 -1878 1 -1950 40 -2213 60 -415 206 -815 397 -1085
88 -125 293 -328 408 -406 321 -218 673 -324 1135 -341 733 -27 1352 212 1737
671 240 286 413 681 488 1116 51 297 49 178 52 2208 l4 1892 -376 0 -375 0 0
-1793 c0 -1151 -4 -1841 -10 -1928 -64 -816 -378 -1317 -938 -1493 -248 -78
-563 -86 -818 -21 -202 51 -372 150 -524 304 -268 270 -415 660 -460 1215 -6
82 -10 778 -10 1922 l0 1794 -375 0 -375 0 0 -1842z"/>
<path d="M24250 5050 l0 -2900 375 0 375 0 0 2900 0 2900 -375 0 -375 0 0
-2900z"/>
<path d="M26940 5050 l0 -2900 1610 0 1610 0 0 315 0 315 -1235 0 -1235 0 0
2585 0 2585 -375 0 -375 0 0 -2900z"/>
<path d="M33127 7818 c-24 -73 -464 -1370 -977 -2883 -513 -1512 -935 -2758
-938 -2767 -4 -17 19 -18 381 -18 l386 0 70 213 c38 116 174 528 301 915 l231
702 1026 -2 1025 -3 308 -908 c170 -500 310 -911 313 -913 2 -2 182 -3 399 -2
l396 3 -986 2897 -987 2898 -452 0 -451 0 -45 -132z m492 -565 c157 -615 197
-743 550 -1783 l307 -905 -865 -3 c-475 -1 -866 0 -869 3 -3 2 126 393 287
867 160 475 309 924 331 998 50 167 168 596 205 748 15 61 31 112 36 112 4 0
13 -17 18 -37z"/>
<path d="M1865 7819 c-453 -44 -898 -217 -1257 -491 -43 -32 -78 -63 -78 -67
0 -5 48 -114 106 -242 58 -129 111 -247 117 -262 l12 -28 60 47 c246 193 537
333 817 395 136 30 396 37 548 15 311 -46 537 -176 688 -398 147 -215 211
-546 168 -868 -72 -541 -393 -1045 -1187 -1866 -219 -227 -379 -383 -1072
-1053 l-397 -384 0 -234 0 -233 1780 0 1780 0 0 315 0 315 -1257 2 -1257 3
264 245 c299 277 790 763 990 980 428 465 669 789 851 1145 139 270 218 511
254 770 24 168 16 497 -15 639 -95 441 -314 773 -655 996 -321 209 -785 304
-1260 259z"/>
</g>
</svg>
